name Walk2.mot
datacolumns 19
datarows 25
range 0.92400000 0.94800000
endheader

                time	   L_ground_force_vx	   L_ground_force_vy	   L_ground_force_vz	   L_ground_force_px	   L_ground_force_py	   L_ground_force_pz	   R_ground_force_vx	   R_ground_force_vy	   R_ground_force_vz	   R_ground_force_px	   R_ground_force_py	   R_ground_force_pz	   L_ground_torque_x	   L_ground_torque_y	   L_ground_torque_z	   R_ground_torque_x	   R_ground_torque_y	   R_ground_torque_z	
          0.92400000	          3.66485951	        713.00166533	         42.25202093	         -0.28153198	          0.00000000	         -0.02874270	         -0.02104551	          0.34592453	          0.02269422	          0.00009680	          0.00000000	          0.00009605	          0.00000000	          0.83226934	          0.00000000	          0.00000000	         -0.00844882	          0.00000000	
          0.92500000	          4.06803702	        713.91932091	         42.29815505	         -0.28112125	          0.00000000	         -0.02878134	         -0.02324272	          0.36132270	          0.02364292	          0.00009967	          0.00000000	          0.00009871	          0.00000000	          0.84350746	          0.00000000	          0.00000000	         -0.00864271	          0.00000000	
          0.92600000	          4.47698595	        714.84282396	         42.34244224	         -0.28071258	          0.00000000	         -0.02881853	         -0.02554811	          0.37665951	          0.02458214	          0.00010239	          0.00000000	          0.00010121	          0.00000000	          0.85477939	          0.00000000	          0.00000000	         -0.00881892	          0.00000000	
          0.92700000	          4.89172915	        715.77261223	         42.38481150	         -0.28030601	          0.00000000	         -0.02885426	         -0.02796222	          0.39186593	          0.02550711	          0.00010493	          0.00000000	          0.00010353	          0.00000000	          0.86607858	          0.00000000	          0.00000000	         -0.00897509	          0.00000000	
          0.92800000	          5.31228992	        716.70910920	         42.42519590	         -0.27990158	          0.00000000	         -0.02888854	         -0.03048518	          0.40686704	          0.02641270	          0.00010728	          0.00000000	          0.00010563	          0.00000000	          0.87739804	          0.00000000	          0.00000000	         -0.00910871	          0.00000000	
          0.92900000	          5.73869123	        717.65272100	         42.46353299	         -0.27949933	          0.00000000	         -0.02892136	         -0.03311668	          0.42158179	          0.02729335	          0.00010941	          0.00000000	          0.00010748	          0.00000000	          0.88873031	          0.00000000	          0.00000000	         -0.00921712	          0.00000000	
          0.93000000	          6.17095454	        718.60383369	         42.49976502	         -0.27909931	          0.00000000	         -0.02895272	         -0.03585595	          0.43592283	          0.02814312	          0.00011128	          0.00000000	          0.00010907	          0.00000000	          0.90006721	          0.00000000	          0.00000000	         -0.00929754	          0.00000000	
          0.93100000	          6.60909835	        719.56281117	         42.53383908	         -0.27870156	          0.00000000	         -0.02898261	         -0.03870168	          0.44979618	          0.02895563	          0.00011287	          0.00000000	          0.00011036	          0.00000000	          0.91139953	          0.00000000	          0.00000000	         -0.00934703	          0.00000000	
          0.93200000	          7.05313677	        720.52999386	         42.56570720	         -0.27830614	          0.00000000	         -0.02901101	         -0.04165202	          0.46310110	          0.02972406	          0.00011414	          0.00000000	          0.00011131	          0.00000000	          0.92271689	          0.00000000	          0.00000000	         -0.00936252	          0.00000000	
          0.93300000	          7.50307835	        721.50569812	         42.59532615	         -0.27791310	          0.00000000	         -0.02903793	         -0.04470450	          0.47572981	          0.03044113	          0.00011505	          0.00000000	          0.00011188	          0.00000000	          0.93400775	          0.00000000	          0.00000000	         -0.00934079	          0.00000000	
          0.93400000	          7.95892536	        722.49021596	         42.62265708	         -0.27752248	          0.00000000	         -0.02906334	         -0.04785600	          0.48756732	          0.03109912	          0.00011558	          0.00000000	          0.00011205	          0.00000000	          0.94525985	          0.00000000	          0.00000000	         -0.00927846	          0.00000000	
          0.93500000	          8.42067344	        723.48381474	         42.64766501	         -0.27713434	          0.00000000	         -0.02908723	         -0.05110272	          0.49849123	          0.03168981	          0.00011567	          0.00000000	          0.00011178	          0.00000000	          0.95646070	          0.00000000	          0.00000000	         -0.00917202	          0.00000000	
          0.93600000	          8.88831160	        724.48673591	         42.67031825	         -0.27674872	          0.00000000	         -0.02910961	         -0.05444008	          0.50837151	          0.03220452	          0.00011530	          0.00000000	          0.00011101	          0.00000000	          0.96759813	          0.00000000	          0.00000000	         -0.00901780	          0.00000000	
          0.93700000	          9.36182242	        725.49919303	         42.69058770	         -0.27636567	          0.00000000	         -0.02913045	         -0.05786274	          0.51707040	          0.03263406	          0.00011441	          0.00000000	          0.00010971	          0.00000000	          0.97866059	          0.00000000	          0.00000000	         -0.00881202	          0.00000000	
          0.93800000	          9.84118226	        726.52136947	         42.70844620	         -0.27598522	          0.00000000	         -0.02914975	         -0.06136449	          0.52444217	          0.03296873	          0.00011297	          0.00000000	          0.00010785	          0.00000000	          0.98963746	          0.00000000	          0.00000000	         -0.00855071	          0.00000000	
          0.93900000	         10.32636134	        727.55341681	         42.72386792	         -0.27560743	          0.00000000	         -0.02916750	         -0.06493820	          0.53033307	          0.03319835	          0.00011093	          0.00000000	          0.00010536	          0.00000000	          1.00051913	          0.00000000	          0.00000000	         -0.00822982	          0.00000000	
          0.94000000	         10.81732379	        728.59545447	         42.73682796	         -0.27523233	          0.00000000	         -0.02918372	         -0.06857581	          0.53458115	          0.03331220	          0.00010825	          0.00000000	          0.00010220	          0.00000000	          1.01129710	          0.00000000	          0.00000000	         -0.00784511	          0.00000000	
          0.94100000	         11.31402772	        729.64757052	         42.74730241	         -0.27485996	          0.00000000	         -0.02919839	         -0.07226824	          0.53701622	          0.03329905	          0.00010486	          0.00000000	          0.00009834	          0.00000000	          1.02196400	          0.00000000	          0.00000000	         -0.00739226	          0.00000000	
          0.94200000	         11.81642536	        730.70982303	         42.75526885	         -0.27449035	          0.00000000	         -0.02921152	         -0.07600532	          0.53745973	          0.03314716	          0.00010073	          0.00000000	          0.00009370	          0.00000000	          1.03251345	          0.00000000	          0.00000000	         -0.00686680	          0.00000000	
          0.94300000	         12.32446356	        731.78224114	         42.76070739	         -0.27412353	          0.00000000	         -0.02922311	         -0.07977578	          0.53572480	          0.03284426	          0.00009580	          0.00000000	          0.00008825	          0.00000000	          1.04294002	          0.00000000	          0.00000000	         -0.00626415	          0.00000000	
          0.94400000	         12.83808430	        732.86482531	         42.76360209	         -0.27375954	          0.00000000	         -0.02923316	         -0.08356714	          0.53161615	          0.03237757	          0.00009002	          0.00000000	          0.00008192	          0.00000000	          1.05323906	          0.00000000	          0.00000000	         -0.00557962	          0.00000000	
          0.94500000	         13.35722524	        733.95754694	         42.76394232	         -0.27339839	          0.00000000	         -0.02924166	         -0.08736569	          0.52493019	          0.03173379	          0.00008332	          0.00000000	          0.00007467	          0.00000000	          1.06340669	          0.00000000	          0.00000000	         -0.00480845	          0.00000000	
          0.94600000	         13.88182019	        735.06034749	         42.76172363	         -0.27304013	          0.00000000	         -0.02924861	         -0.09115640	          0.51545501	          0.03089913	          0.00007566	          0.00000000	          0.00006644	          0.00000000	          1.07343988	          0.00000000	          0.00000000	         -0.00394575	          0.00000000	
          0.94700000	         14.41179942	        736.17313758	         42.75694798	         -0.27268476	          0.00000000	         -0.02925401	         -0.09492290	          0.50297057	          0.02985931	          0.00006698	          0.00000000	          0.00005717	          0.00000000	          1.08333655	          0.00000000	          0.00000000	         -0.00298659	          0.00000000	
          0.94800000	         14.94709011	        737.29579607	         42.74962335	         -0.27233232	          0.00000000	         -0.02925784	         -0.09864738	          0.48724879	          0.02859954	          0.00005721	          0.00000000	          0.00004680	          0.00000000	          1.09309580	          0.00000000	          0.00000000	         -0.00192597	          0.00000000	
